<?xml version="1.0" encoding="UTF-8" standalone="no"?>
<!-- Created with Inkscape (http://www.inkscape.org/) -->

<svg
   width="128"
   height="128"
   viewBox="0 0 33.866666 33.866666"
   version="1.1"
   id="svg1"
   xmlns="http://www.w3.org/2000/svg"
   xmlns:svg="http://www.w3.org/2000/svg">
  <defs
     id="defs1" />
  <g
     id="layer1">
    <rect
       style="fill:#373c3f;stroke-width:0.264583;fill-opacity:1"
       id="rect1"
       width="33.866665"
       height="33.866665"
       x="-33.866665"
       y="-33.866665"
       transform="scale(-1)" />
    <path
       d="m 21.321885,13.222113 c 0,0.733778 -0.761999,2.060221 -2.285998,3.951109 l -0.790222,1.072443 -0.846666,2.031999 c -0.197555,0.253999 -0.507999,0.366888 -0.959555,0.366888 -0.338666,0 -0.620888,-0.112889 -0.874888,-0.338666 -0.254,-0.225778 -0.366889,-0.479778 -0.366889,-0.818444 0,-1.269999 0.649111,-2.624665 2.003777,-4.092219 0.112889,-0.141111 0.254,-0.310444 0.423333,-0.479778 0.592666,-0.620888 0.90311,-1.044221 0.931332,-1.298221 0.05645,-0.592666 -0.141111,-1.128888 -0.564444,-1.580443 -0.39511,-0.395111 -0.90311,-0.592666 -1.552221,-0.592666 -0.479777,0 -0.959555,0.169333 -1.41111,0.451555 -0.366888,0.254 -0.64911,0.451555 -0.874888,0.564444 -0.225778,0.112889 -0.366889,0.197555 -0.423333,0.225778 -0.733777,-0.254 -1.072444,-0.762 -1.072444,-1.495777 0,-0.620888 0.451556,-1.15711 1.354666,-1.6651101 0.761999,-0.423333 1.495777,-0.6491106 2.201332,-0.6491106 1.354665,0 2.398887,0.2539998 3.160886,0.705555 1.298221,0.7902217 1.947332,2.0037767 1.947332,3.6406637 z m -3.443108,10.047104 c 0,0.507999 -0.169334,0.90311 -0.479778,1.241777 -0.338666,0.338666 -0.733777,0.479777 -1.185332,0.479777 -0.423333,0 -0.790222,-0.141111 -1.100666,-0.451555 -0.338667,-0.282222 -0.479778,-0.649111 -0.479778,-1.072444 0,-0.451555 0.141111,-0.874888 0.423333,-1.241777 0.282222,-0.366888 0.733778,-0.592666 1.298222,-0.677332 0.282222,0.08467 0.592666,0.310444 0.959555,0.677332 0.366888,0.366889 0.564444,0.705555 0.564444,1.044222 z m 6.603994,4.007552 c 0,1.044222 -0.507999,1.552221 -1.523998,1.552221 H 10.710338 c -0.903111,0 -1.326444,-0.507999 -1.326444,-1.552221 V 6.6181183 c 0,-1.0442214 0.5079996,-1.5804432 1.552221,-1.5804432 h 12.022658 c 0.423333,0 0.790221,0.141111 1.072443,0.3951108 0.282222,0.282222 0.451555,0.6208884 0.451555,1.0442214 z M 22.02744,26.373659 V 7.4365621 H 11.839226 V 26.373659 Z"
       id="text1"
       style="font-size:28.2222px;font-family:'APL386 Unicode';-inkscape-font-specification:'APL386 Unicode';fill:#94e044;stroke-width:1.2822"
       aria-label="â°" />
  </g>
</svg>
